<svg id="visual" viewBox="0 0 900 600" width="900" height="600" xmlns="http://www.w3.org/2000/svg" xmlns:xlink="http://www.w3.org/1999/xlink" version="1.1"><rect width="900" height="600" fill="#04172f"></rect><g><g transform="translate(44 148)"><path d="M97.3 -30.1C109.4 5.7 91 52.8 56.8 77.5C22.6 102.2 -27.4 104.4 -62.7 80.2C-98 56 -118.5 5.4 -105.6 -31.4C-92.7 -68.3 -46.3 -91.3 -1.9 -90.7C42.6 -90.1 85.2 -65.8 97.3 -30.1Z" stroke="#0fd4f7" fill="none" stroke-width="20"></path></g><g transform="translate(205 496)"><path d="M66.5 -24.6C75.6 6.3 65 40.6 39.6 60.4C14.2 80.3 -25.9 85.6 -51.6 67.8C-77.3 49.9 -88.4 8.8 -77.4 -24.8C-66.4 -58.4 -33.2 -84.5 -2.2 -83.7C28.7 -83 57.4 -55.5 66.5 -24.6Z" stroke="#0fd4f7" fill="none" stroke-width="20"></path></g><g transform="translate(863 561)"><path d="M52.7 -16.7C60.6 7.2 54 36.2 34.3 51.6C14.6 66.9 -18.2 68.6 -40 53.2C-61.7 37.9 -72.4 5.4 -63.9 -19.3C-55.4 -44 -27.7 -61 -2.6 -60.1C22.4 -59.2 44.8 -40.5 52.7 -16.7Z" stroke="#0fd4f7" fill="none" stroke-width="20"></path></g><g transform="translate(629 22)"><path d="M64.1 -18.9C74 9.9 66.9 46.1 44.6 62.6C22.3 79.1 -15.2 75.9 -39.5 57.5C-63.7 39.1 -74.7 5.7 -65.9 -21.5C-57.1 -48.6 -28.5 -69.4 -0.7 -69.2C27 -68.9 54.1 -47.6 64.1 -18.9Z" stroke="#0fd4f7" fill="none" stroke-width="20"></path></g><g transform="translate(482 313)"><path d="M59 -19.9C67 5.3 57.3 35.4 34.8 52.9C12.3 70.5 -23 75.4 -45.2 59.8C-67.4 44.2 -76.5 8.2 -66.8 -19.4C-57 -46.9 -28.5 -66.1 -1.5 -65.6C25.5 -65.1 51.1 -45 59 -19.9Z" stroke="#0fd4f7" fill="none" stroke-width="20"></path></g></g></svg>