<svg class="svg-icon" style="width: 1.18359375em; height: 1em;vertical-align: middle;fill: currentColor;overflow: hidden;" viewBox="0 0 1212 1024" version="1.1" xmlns="http://www.w3.org/2000/svg"><path d="M 1202.39 520.275 l -466.759 -466.759 a 183.198 183.198 0 0 0 -258.797 0 L 10.0707 520.275 A 34.3711 34.3711 0 0 0 34.3711 578.946 h 155.718 v 262.062 a 183.198 183.198 0 0 0 182.992 182.992 h 466.295 a 183.215 183.215 0 0 0 183.009 -182.992 V 578.946 h 155.701 a 34.3711 34.3711 0 0 0 24.3003 -58.6714 Z M 775.068 892.685 a 25.7783 25.7783 0 0 1 -51.5566 0 v -113.064 a 117.205 117.205 0 0 0 -234.393 0 v 113.064 a 25.7783 25.7783 0 0 1 -51.5566 0 v -113.064 a 168.762 168.762 0 0 1 337.507 0 Z" fill="#231815" /></svg>