<svg id="visual" viewBox="0 0 900 675" width="900" height="675" xmlns="http://www.w3.org/2000/svg" xmlns:xlink="http://www.w3.org/1999/xlink" version="1.1"><g stroke-width="1" stroke-linejoin="bevel"><path d="M487 275.3L521 198.9L390 217.9Z" fill="#00101c" stroke="#00101c"></path><path d="M390 217.9L366 293.3L487 275.3Z" fill="#246688" stroke="#246688"></path><path d="M390 217.9L325 274.3L366 293.3Z" fill="#277297" stroke="#277297"></path><path d="M475 69.4L389 86.4L390 217.9Z" fill="#081a28" stroke="#081a28"></path><path d="M390 217.9L273 176.9L325 274.3Z" fill="#297ea6" stroke="#297ea6"></path><path d="M521 198.9L475 69.4L390 217.9Z" fill="#15384f" stroke="#15384f"></path><path d="M487 275.3L612 225.9L521 198.9Z" fill="#0c2435" stroke="#0c2435"></path><path d="M521 198.9L579 83.4L475 69.4Z" fill="#081a28" stroke="#081a28"></path><path d="M325 274.3L371 358.7L366 293.3Z" fill="#277297" stroke="#277297"></path><path d="M366 293.3L371 358.7L487 275.3Z" fill="#081a28" stroke="#081a28"></path><path d="M487 275.3L623 290.3L612 225.9Z" fill="#1d4e6b" stroke="#1d4e6b"></path><path d="M612 225.9L579 83.4L521 198.9Z" fill="#1d4e6b" stroke="#1d4e6b"></path><path d="M401 0L330 87.4L389 86.4Z" fill="#00101c" stroke="#00101c"></path><path d="M389 86.4L330 87.4L390 217.9Z" fill="#15384f" stroke="#15384f"></path><path d="M581 410.7L623 290.3L487 275.3Z" fill="#1d4e6b" stroke="#1d4e6b"></path><path d="M330 87.4L273 176.9L390 217.9Z" fill="#205a7a" stroke="#205a7a"></path><path d="M371 358.7L496 402.7L487 275.3Z" fill="#246688" stroke="#246688"></path><path d="M623 290.3L662 201.9L612 225.9Z" fill="#112e42" stroke="#112e42"></path><path d="M612 225.9L662 201.9L579 83.4Z" fill="#081a28" stroke="#081a28"></path><path d="M579 83.4L476 0L475 69.4Z" fill="#1d4e6b" stroke="#1d4e6b"></path><path d="M475 69.4L401 0L389 86.4Z" fill="#297ea6" stroke="#297ea6"></path><path d="M476 0L401 0L475 69.4Z" fill="#205a7a" stroke="#205a7a"></path><path d="M496 402.7L581 410.7L487 275.3Z" fill="#1d4e6b" stroke="#1d4e6b"></path><path d="M623 290.3L706 253.3L662 201.9Z" fill="#081a28" stroke="#081a28"></path><path d="M325 274.3L273 371.7L371 358.7Z" fill="#19435d" stroke="#19435d"></path><path d="M371 358.7L378 455.1L496 402.7Z" fill="#19435d" stroke="#19435d"></path><path d="M178 278.3L273 371.7L325 274.3Z" fill="#205a7a" stroke="#205a7a"></path><path d="M171 74.4L217 181.9L273 176.9Z" fill="#205a7a" stroke="#205a7a"></path><path d="M273 176.9L217 181.9L325 274.3Z" fill="#19435d" stroke="#19435d"></path><path d="M171 74.4L273 176.9L330 87.4Z" fill="#19435d" stroke="#19435d"></path><path d="M662 201.9L679 106.4L579 83.4Z" fill="#246688" stroke="#246688"></path><path d="M579 83.4L627 0L476 0Z" fill="#00101c" stroke="#00101c"></path><path d="M273 371.7L378 455.1L371 358.7Z" fill="#297ea6" stroke="#297ea6"></path><path d="M533 503.1L623 462.1L581 410.7Z" fill="#205a7a" stroke="#205a7a"></path><path d="M687 423.7L706 253.3L623 290.3Z" fill="#19435d" stroke="#19435d"></path><path d="M662 201.9L783 179.9L679 106.4Z" fill="#205a7a" stroke="#205a7a"></path><path d="M679 106.4L627 0L579 83.4Z" fill="#1d4e6b" stroke="#1d4e6b"></path><path d="M401 0L274 0L330 87.4Z" fill="#112e42" stroke="#112e42"></path><path d="M126 160.9L178 278.3L217 181.9Z" fill="#1d4e6b" stroke="#1d4e6b"></path><path d="M217 181.9L178 278.3L325 274.3Z" fill="#1d4e6b" stroke="#1d4e6b"></path><path d="M533 503.1L581 410.7L496 402.7Z" fill="#00101c" stroke="#00101c"></path><path d="M581 410.7L687 423.7L623 290.3Z" fill="#112e42" stroke="#112e42"></path><path d="M468 550.6L533 503.1L496 402.7Z" fill="#00101c" stroke="#00101c"></path><path d="M623 462.1L687 423.7L581 410.7Z" fill="#1d4e6b" stroke="#1d4e6b"></path><path d="M273 371.7L328 501.1L378 455.1Z" fill="#277297" stroke="#277297"></path><path d="M378 455.1L468 550.6L496 402.7Z" fill="#1d4e6b" stroke="#1d4e6b"></path><path d="M238 448.1L328 501.1L273 371.7Z" fill="#15384f" stroke="#15384f"></path><path d="M274 0L171 74.4L330 87.4Z" fill="#15384f" stroke="#15384f"></path><path d="M198 417.7L238 448.1L273 371.7Z" fill="#081a28" stroke="#081a28"></path><path d="M178 278.3L198 417.7L273 371.7Z" fill="#00101c" stroke="#00101c"></path><path d="M827 320.3L783 179.9L706 253.3Z" fill="#112e42" stroke="#112e42"></path><path d="M706 253.3L783 179.9L662 201.9Z" fill="#19435d" stroke="#19435d"></path><path d="M679 106.4L723 0L627 0Z" fill="#00101c" stroke="#00101c"></path><path d="M274 0L208 0L171 74.4Z" fill="#112e42" stroke="#112e42"></path><path d="M623 462.1L677 466.1L687 423.7Z" fill="#205a7a" stroke="#205a7a"></path><path d="M687 423.7L827 320.3L706 253.3Z" fill="#00101c" stroke="#00101c"></path><path d="M627 538.6L677 466.1L623 462.1Z" fill="#1d4e6b" stroke="#1d4e6b"></path><path d="M328 501.1L411 547.6L378 455.1Z" fill="#297ea6" stroke="#297ea6"></path><path d="M533 503.1L627 538.6L623 462.1Z" fill="#246688" stroke="#246688"></path><path d="M411 547.6L468 550.6L378 455.1Z" fill="#246688" stroke="#246688"></path><path d="M100 98.4L126 160.9L171 74.4Z" fill="#205a7a" stroke="#205a7a"></path><path d="M171 74.4L126 160.9L217 181.9Z" fill="#0c2435" stroke="#0c2435"></path><path d="M178 278.3L112 363.7L198 417.7Z" fill="#00101c" stroke="#00101c"></path><path d="M126 160.9L122 286.3L178 278.3Z" fill="#0c2435" stroke="#0c2435"></path><path d="M761 0L723 0L679 106.4Z" fill="#00101c" stroke="#00101c"></path><path d="M468 550.6L627 538.6L533 503.1Z" fill="#297ea6" stroke="#297ea6"></path><path d="M823 70.4L761 0L679 106.4Z" fill="#277297" stroke="#277297"></path><path d="M0 267.3L112 363.7L122 286.3Z" fill="#00101c" stroke="#00101c"></path><path d="M122 286.3L112 363.7L178 278.3Z" fill="#277297" stroke="#277297"></path><path d="M189 550.6L328 501.1L238 448.1Z" fill="#1d4e6b" stroke="#1d4e6b"></path><path d="M110 0L100 98.4L171 74.4Z" fill="#0c2435" stroke="#0c2435"></path><path d="M126 160.9L0 215.9L122 286.3Z" fill="#19435d" stroke="#19435d"></path><path d="M837 349.7L827 320.3L687 423.7Z" fill="#00101c" stroke="#00101c"></path><path d="M783 179.9L823 70.4L679 106.4Z" fill="#00101c" stroke="#00101c"></path><path d="M837 349.7L687 423.7L804 518.1Z" fill="#081a28" stroke="#081a28"></path><path d="M900 118.4L823 70.4L783 179.9Z" fill="#15384f" stroke="#15384f"></path><path d="M804 518.1L687 423.7L677 466.1Z" fill="#00101c" stroke="#00101c"></path><path d="M900 301.3L900 173.9L783 179.9Z" fill="#205a7a" stroke="#205a7a"></path><path d="M328 501.1L303 592.6L411 547.6Z" fill="#112e42" stroke="#112e42"></path><path d="M411 547.6L492 675L468 550.6Z" fill="#297ea6" stroke="#297ea6"></path><path d="M608 675L721 591.6L627 538.6Z" fill="#19435d" stroke="#19435d"></path><path d="M189 550.6L303 592.6L328 501.1Z" fill="#00101c" stroke="#00101c"></path><path d="M189 550.6L238 448.1L198 417.7Z" fill="#19435d" stroke="#19435d"></path><path d="M208 0L110 0L171 74.4Z" fill="#081a28" stroke="#081a28"></path><path d="M66 456.1L189 550.6L198 417.7Z" fill="#1d4e6b" stroke="#1d4e6b"></path><path d="M900 301.3L783 179.9L827 320.3Z" fill="#205a7a" stroke="#205a7a"></path><path d="M837 349.7L900 301.3L827 320.3Z" fill="#112e42" stroke="#112e42"></path><path d="M900 388.7L900 301.3L837 349.7Z" fill="#00101c" stroke="#00101c"></path><path d="M900 173.9L900 118.4L783 179.9Z" fill="#112e42" stroke="#112e42"></path><path d="M823 70.4L900 0L761 0Z" fill="#15384f" stroke="#15384f"></path><path d="M0 92.4L0 215.9L100 98.4Z" fill="#246688" stroke="#246688"></path><path d="M100 98.4L0 215.9L126 160.9Z" fill="#00101c" stroke="#00101c"></path><path d="M112 363.7L66 456.1L198 417.7Z" fill="#00101c" stroke="#00101c"></path><path d="M0 367.7L66 456.1L112 363.7Z" fill="#1d4e6b" stroke="#1d4e6b"></path><path d="M608 675L627 538.6L468 550.6Z" fill="#205a7a" stroke="#205a7a"></path><path d="M627 538.6L721 591.6L677 466.1Z" fill="#297ea6" stroke="#297ea6"></path><path d="M0 215.9L0 267.3L122 286.3Z" fill="#00101c" stroke="#00101c"></path><path d="M363 675L411 547.6L303 592.6Z" fill="#1d4e6b" stroke="#1d4e6b"></path><path d="M363 675L492 675L411 547.6Z" fill="#246688" stroke="#246688"></path><path d="M796 548.6L804 518.1L677 466.1Z" fill="#112e42" stroke="#112e42"></path><path d="M314 675L363 675L303 592.6Z" fill="#112e42" stroke="#112e42"></path><path d="M0 0L0 92.4L100 98.4Z" fill="#00101c" stroke="#00101c"></path><path d="M721 591.6L796 548.6L677 466.1Z" fill="#00101c" stroke="#00101c"></path><path d="M804 518.1L900 388.7L837 349.7Z" fill="#1d4e6b" stroke="#1d4e6b"></path><path d="M900 500.1L900 388.7L804 518.1Z" fill="#15384f" stroke="#15384f"></path><path d="M188 675L303 592.6L189 550.6Z" fill="#0c2435" stroke="#0c2435"></path><path d="M188 675L314 675L303 592.6Z" fill="#246688" stroke="#246688"></path><path d="M0 267.3L0 367.7L112 363.7Z" fill="#277297" stroke="#277297"></path><path d="M492 675L608 675L468 550.6Z" fill="#297ea6" stroke="#297ea6"></path><path d="M721 591.6L823 675L796 548.6Z" fill="#15384f" stroke="#15384f"></path><path d="M900 118.4L900 0L823 70.4Z" fill="#205a7a" stroke="#205a7a"></path><path d="M110 0L0 0L100 98.4Z" fill="#081a28" stroke="#081a28"></path><path d="M66 456.1L112 611.6L189 550.6Z" fill="#277297" stroke="#277297"></path><path d="M0 477.1L112 611.6L66 456.1Z" fill="#15384f" stroke="#15384f"></path><path d="M0 367.7L0 477.1L66 456.1Z" fill="#1d4e6b" stroke="#1d4e6b"></path><path d="M900 603.6L900 500.1L796 548.6Z" fill="#0c2435" stroke="#0c2435"></path><path d="M796 548.6L900 500.1L804 518.1Z" fill="#246688" stroke="#246688"></path><path d="M112 611.6L188 675L189 550.6Z" fill="#277297" stroke="#277297"></path><path d="M608 675L739 675L721 591.6Z" fill="#246688" stroke="#246688"></path><path d="M739 675L823 675L721 591.6Z" fill="#081a28" stroke="#081a28"></path><path d="M823 675L900 603.6L796 548.6Z" fill="#081a28" stroke="#081a28"></path><path d="M0 616.6L67 675L112 611.6Z" fill="#297ea6" stroke="#297ea6"></path><path d="M112 611.6L67 675L188 675Z" fill="#0c2435" stroke="#0c2435"></path><path d="M0 477.1L0 616.6L112 611.6Z" fill="#246688" stroke="#246688"></path><path d="M823 675L900 675L900 603.6Z" fill="#246688" stroke="#246688"></path><path d="M0 616.6L0 675L67 675Z" fill="#081a28" stroke="#081a28"></path></g></svg>