<svg id="visual" viewBox="0 0 960 540" width="960" height="540" xmlns="http://www.w3.org/2000/svg" xmlns:xlink="http://www.w3.org/1999/xlink" version="1.1"><g stroke-width="1" stroke-linejoin="bevel"><path d="M498.3 261L421.7 213L444.7 250Z" fill="#081a28" stroke="#081a28"></path><path d="M498.3 261L557.3 161L421.7 213Z" fill="#0c2435" stroke="#0c2435"></path><path d="M557.3 161L512.3 76L421.7 213Z" fill="#1d4e6b" stroke="#1d4e6b"></path><path d="M512.3 76L412.7 81L421.7 213Z" fill="#00101c" stroke="#00101c"></path><path d="M498.3 261L625 201L557.3 161Z" fill="#0c2435" stroke="#0c2435"></path><path d="M557.3 161L630 87L512.3 76Z" fill="#205a7a" stroke="#205a7a"></path><path d="M344 129L334 190L421.7 213Z" fill="#205a7a" stroke="#205a7a"></path><path d="M421.7 213L309 293L444.7 250Z" fill="#0c2435" stroke="#0c2435"></path><path d="M412.7 81L344 129L421.7 213Z" fill="#19435d" stroke="#19435d"></path><path d="M444.7 250L514.3 357L498.3 261Z" fill="#246688" stroke="#246688"></path><path d="M498.3 261L632 274L625 201Z" fill="#15384f" stroke="#15384f"></path><path d="M446.7 395L514.3 357L444.7 250Z" fill="#1d4e6b" stroke="#1d4e6b"></path><path d="M514.3 357L632 274L498.3 261Z" fill="#19435d" stroke="#19435d"></path><path d="M754.7 167L630 87L625 201Z" fill="#277297" stroke="#277297"></path><path d="M625 201L630 87L557.3 161Z" fill="#0c2435" stroke="#0c2435"></path><path d="M249.3 250L309 293L334 190Z" fill="#297ea6" stroke="#297ea6"></path><path d="M334 190L309 293L421.7 213Z" fill="#246688" stroke="#246688"></path><path d="M351 362L446.7 395L444.7 250Z" fill="#1d4e6b" stroke="#1d4e6b"></path><path d="M614 0L520.3 0L512.3 76Z" fill="#0c2435" stroke="#0c2435"></path><path d="M512.3 76L430.7 0L412.7 81Z" fill="#277297" stroke="#277297"></path><path d="M412.7 81L321 0L344 129Z" fill="#00101c" stroke="#00101c"></path><path d="M520.3 0L430.7 0L512.3 76Z" fill="#00101c" stroke="#00101c"></path><path d="M309 293L351 362L444.7 250Z" fill="#277297" stroke="#277297"></path><path d="M446.7 395L462.7 422L514.3 357Z" fill="#081a28" stroke="#081a28"></path><path d="M514.3 357L570.3 411L632 274Z" fill="#297ea6" stroke="#297ea6"></path><path d="M303 450L462.7 422L446.7 395Z" fill="#1d4e6b" stroke="#1d4e6b"></path><path d="M462.7 422L570.3 411L514.3 357Z" fill="#15384f" stroke="#15384f"></path><path d="M570.3 411L673 327L632 274Z" fill="#277297" stroke="#277297"></path><path d="M753.7 276L754.7 167L625 201Z" fill="#00101c" stroke="#00101c"></path><path d="M247.3 161L249.3 250L334 190Z" fill="#277297" stroke="#277297"></path><path d="M236.3 397L303 450L351 362Z" fill="#081a28" stroke="#081a28"></path><path d="M247.3 161L334 190L344 129Z" fill="#0c2435" stroke="#0c2435"></path><path d="M192.3 51L247.3 161L344 129Z" fill="#00101c" stroke="#00101c"></path><path d="M630 87L614 0L512.3 76Z" fill="#0c2435" stroke="#0c2435"></path><path d="M430.7 0L321 0L412.7 81Z" fill="#1d4e6b" stroke="#1d4e6b"></path><path d="M753.7 276L625 201L632 274Z" fill="#112e42" stroke="#112e42"></path><path d="M630 87L713.7 0L614 0Z" fill="#15384f" stroke="#15384f"></path><path d="M673 327L753.7 276L632 274Z" fill="#297ea6" stroke="#297ea6"></path><path d="M729.7 395L753.7 276L673 327Z" fill="#15384f" stroke="#15384f"></path><path d="M770.7 96L713.7 0L630 87Z" fill="#297ea6" stroke="#297ea6"></path><path d="M754.7 167L770.7 96L630 87Z" fill="#15384f" stroke="#15384f"></path><path d="M842.3 112L770.7 96L754.7 167Z" fill="#205a7a" stroke="#205a7a"></path><path d="M236.3 397L351 362L309 293Z" fill="#15384f" stroke="#15384f"></path><path d="M351 362L303 450L446.7 395Z" fill="#15384f" stroke="#15384f"></path><path d="M571.3 540L613 483L570.3 411Z" fill="#0c2435" stroke="#0c2435"></path><path d="M571.3 540L570.3 411L462.7 422Z" fill="#297ea6" stroke="#297ea6"></path><path d="M570.3 411L729.7 395L673 327Z" fill="#15384f" stroke="#15384f"></path><path d="M613 483L729.7 395L570.3 411Z" fill="#205a7a" stroke="#205a7a"></path><path d="M212.3 434L236.3 397L92.7 331Z" fill="#277297" stroke="#277297"></path><path d="M249.3 250L236.3 397L309 293Z" fill="#205a7a" stroke="#205a7a"></path><path d="M321 0L192.3 51L344 129Z" fill="#081a28" stroke="#081a28"></path><path d="M247.3 161L97.7 210L249.3 250Z" fill="#246688" stroke="#246688"></path><path d="M319 540L412.7 540L303 450Z" fill="#15384f" stroke="#15384f"></path><path d="M303 450L412.7 540L462.7 422Z" fill="#0c2435" stroke="#0c2435"></path><path d="M412.7 540L571.3 540L462.7 422Z" fill="#19435d" stroke="#19435d"></path><path d="M613 483L724.7 465L729.7 395Z" fill="#15384f" stroke="#15384f"></path><path d="M236.3 397L212.3 434L303 450Z" fill="#0c2435" stroke="#0c2435"></path><path d="M92.7 331L236.3 397L249.3 250Z" fill="#081a28" stroke="#081a28"></path><path d="M642 540L724.7 465L613 483Z" fill="#1d4e6b" stroke="#1d4e6b"></path><path d="M861.3 251L754.7 167L753.7 276Z" fill="#205a7a" stroke="#205a7a"></path><path d="M321 0L177.3 0L192.3 51Z" fill="#277297" stroke="#277297"></path><path d="M192.3 51L123.7 108L247.3 161Z" fill="#15384f" stroke="#15384f"></path><path d="M818.3 362L753.7 276L729.7 395Z" fill="#246688" stroke="#246688"></path><path d="M868.3 198L842.3 112L754.7 167Z" fill="#0c2435" stroke="#0c2435"></path><path d="M770.7 96L836.3 0L713.7 0Z" fill="#15384f" stroke="#15384f"></path><path d="M143.7 0L123.7 108L192.3 51Z" fill="#081a28" stroke="#081a28"></path><path d="M851.3 459L818.3 362L729.7 395Z" fill="#00101c" stroke="#00101c"></path><path d="M571.3 540L642 540L613 483Z" fill="#00101c" stroke="#00101c"></path><path d="M187.3 540L319 540L303 450Z" fill="#246688" stroke="#246688"></path><path d="M818.3 362L861.3 251L753.7 276Z" fill="#1d4e6b" stroke="#1d4e6b"></path><path d="M123.7 108L97.7 210L247.3 161Z" fill="#112e42" stroke="#112e42"></path><path d="M97.7 210L101.7 257L249.3 250Z" fill="#00101c" stroke="#00101c"></path><path d="M861.3 251L868.3 198L754.7 167Z" fill="#297ea6" stroke="#297ea6"></path><path d="M177.3 0L143.7 0L192.3 51Z" fill="#277297" stroke="#277297"></path><path d="M0 107L0 194L97.7 210Z" fill="#15384f" stroke="#15384f"></path><path d="M960 0L836.3 0L842.3 112Z" fill="#081a28" stroke="#081a28"></path><path d="M842.3 112L836.3 0L770.7 96Z" fill="#15384f" stroke="#15384f"></path><path d="M0 322L92.7 331L101.7 257Z" fill="#19435d" stroke="#19435d"></path><path d="M101.7 257L92.7 331L249.3 250Z" fill="#19435d" stroke="#19435d"></path><path d="M212.3 434L187.3 540L303 450Z" fill="#081a28" stroke="#081a28"></path><path d="M724.7 465L851.3 459L729.7 395Z" fill="#1d4e6b" stroke="#1d4e6b"></path><path d="M960 335L960 266L861.3 251Z" fill="#297ea6" stroke="#297ea6"></path><path d="M642 540L751.7 540L724.7 465Z" fill="#15384f" stroke="#15384f"></path><path d="M98.7 468L187.3 540L212.3 434Z" fill="#1d4e6b" stroke="#1d4e6b"></path><path d="M815.3 540L851.3 459L724.7 465Z" fill="#297ea6" stroke="#297ea6"></path><path d="M861.3 251L960 197L868.3 198Z" fill="#081a28" stroke="#081a28"></path><path d="M92.7 331L98.7 468L212.3 434Z" fill="#19435d" stroke="#19435d"></path><path d="M751.7 540L815.3 540L724.7 465Z" fill="#00101c" stroke="#00101c"></path><path d="M960 266L960 197L861.3 251Z" fill="#277297" stroke="#277297"></path><path d="M868.3 198L960 110L842.3 112Z" fill="#297ea6" stroke="#297ea6"></path><path d="M960 335L861.3 251L818.3 362Z" fill="#15384f" stroke="#15384f"></path><path d="M960 335L818.3 362L851.3 459Z" fill="#00101c" stroke="#00101c"></path><path d="M0 107L97.7 210L123.7 108Z" fill="#1d4e6b" stroke="#1d4e6b"></path><path d="M97.7 210L0 253L101.7 257Z" fill="#112e42" stroke="#112e42"></path><path d="M92.7 331L0 442L98.7 468Z" fill="#277297" stroke="#277297"></path><path d="M0 194L0 253L97.7 210Z" fill="#19435d" stroke="#19435d"></path><path d="M960 197L960 110L868.3 198Z" fill="#112e42" stroke="#112e42"></path><path d="M0 0L0 107L123.7 108Z" fill="#112e42" stroke="#112e42"></path><path d="M960 484L960 335L851.3 459Z" fill="#297ea6" stroke="#297ea6"></path><path d="M0 253L0 322L101.7 257Z" fill="#1d4e6b" stroke="#1d4e6b"></path><path d="M960 110L960 0L842.3 112Z" fill="#112e42" stroke="#112e42"></path><path d="M143.7 0L0 0L123.7 108Z" fill="#112e42" stroke="#112e42"></path><path d="M98.7 468L75.7 540L187.3 540Z" fill="#19435d" stroke="#19435d"></path><path d="M0 442L75.7 540L98.7 468Z" fill="#246688" stroke="#246688"></path><path d="M0 322L0 442L92.7 331Z" fill="#297ea6" stroke="#297ea6"></path><path d="M960 540L960 484L851.3 459Z" fill="#081a28" stroke="#081a28"></path><path d="M815.3 540L960 540L851.3 459Z" fill="#112e42" stroke="#112e42"></path><path d="M0 442L0 540L75.7 540Z" fill="#081a28" stroke="#081a28"></path></g></svg>