<svg id="visual" viewBox="0 0 540 960" width="540" height="960" xmlns="http://www.w3.org/2000/svg" xmlns:xlink="http://www.w3.org/1999/xlink" version="1.1"><rect width="540" height="960" fill="#04172f"></rect><g><g transform="translate(433 314)"><path d="M104.1 -32.5C117.2 6.5 97.9 57.4 63.4 80.9C29 104.4 -20.6 100.5 -53.8 76C-87 51.4 -103.7 6.2 -92 -31C-80.3 -68.1 -40.1 -97 2.7 -97.9C45.5 -98.8 91 -71.6 104.1 -32.5Z" stroke="#0fd4f7" fill="none" stroke-width="20"></path></g><g transform="translate(414 637)"><path d="M67.7 -20C76.8 6.1 65.7 40.7 43.6 55.7C21.6 70.7 -11.6 66.2 -35.7 48.8C-59.8 31.3 -74.9 1.1 -67.4 -22.7C-59.9 -46.5 -30 -63.9 -0.3 -63.8C29.3 -63.6 58.5 -46.1 67.7 -20Z" stroke="#0fd4f7" fill="none" stroke-width="20"></path></g><g transform="translate(78 606)"><path d="M57.3 -16C66.3 9 60.1 41.6 40 56.6C19.8 71.6 -14.3 69.1 -35.1 52.9C-55.9 36.7 -63.4 6.8 -55.4 -16.9C-47.3 -40.6 -23.7 -58.2 0.3 -58.3C24.2 -58.4 48.3 -41 57.3 -16Z" stroke="#0fd4f7" fill="none" stroke-width="20"></path></g><g transform="translate(103 2)"><path d="M73.2 -27.4C82 3 67.1 37.5 42.2 54.8C17.3 72.1 -17.6 72.2 -42.9 54.9C-68.1 37.5 -83.6 2.7 -74.8 -27.8C-66.1 -58.3 -33 -84.3 -0.4 -84.2C32.3 -84.1 64.5 -57.8 73.2 -27.4Z" stroke="#0fd4f7" fill="none" stroke-width="20"></path></g><g transform="translate(188 937)"><path d="M64.4 -20.4C73.1 6 62.8 39 41.4 53.8C20.1 68.5 -12.2 64.9 -32.9 49C-53.6 33.1 -62.8 4.9 -55.3 -19.6C-47.9 -44.2 -24 -65 1.9 -65.6C27.8 -66.2 55.7 -46.7 64.4 -20.4Z" stroke="#0fd4f7" fill="none" stroke-width="20"></path></g></g></svg>